<?xml version="1.0" encoding="utf-8"?>
<!-- Generator: Adobe Illustrator 22.0.1, SVG Export Plug-In . SVG Version: 6.00 Build 0)  -->
<svg version="1.1" id="Layer_1" xmlns="http://www.w3.org/2000/svg" xmlns:xlink="http://www.w3.org/1999/xlink" x="0px" y="0px"
	 viewBox="0 0 499.4 499.4" style="enable-background:new 0 0 499.4 499.4;" xml:space="preserve">
<style type="text/css">
	.st0{fill:#684F40;}
</style>
<g>
	<path class="st0" d="M311.9,313.9l-9.8,27.8l6.7,24.8h35.9v-56.6c-10.8-0.3-21.4-1-31.5-2.2C313,309.8,312.6,311.9,311.9,313.9z"/>
	<path class="st0" d="M415,366.5h7.6c16.3,0,30.8-10.3,36.2-25.7l21-59.7c-13.3,7.8-29.1,14.2-47,19L415,366.5z"/>
	<path class="st0" d="M361.6,366.5h35.9l16.7-62c-16.4,3.2-34,5.1-52.6,5.5L361.6,366.5L361.6,366.5z"/>
	<path class="st0" d="M415.1,123.5c-7.9,26.9-32.5,46.7-62,46.7c-29.4,0-54.1-19.8-62-46.7c-26.2,11.9-48.2,29.8-63.1,48.2
		c52.5,26.9,88.3,75.1,89.6,111.1c11.4,1.3,23.2,2.1,35.5,2.1c80.8,0,146.3-30.1,146.3-67.2C499.4,190.7,464.9,146.1,415.1,123.5z"
		/>
	<path class="st0" d="M353.1,144.9c21.8,0,39.6-17.7,39.6-39.6c0-21.8-17.7-39.6-39.6-39.6c-21.8,0-39.6,17.7-39.6,39.6
		C313.6,127.2,331.3,144.9,353.1,144.9z"/>
	<path class="st0" d="M101.9,433.6h35.9V377c-18.6-0.4-36.3-2.3-52.6-5.5L101.9,433.6z"/>
	<path class="st0" d="M19.6,348.2l21,59.7c5.4,15.4,19.9,25.7,36.2,25.7h7.6l-17.8-66.3C48.7,362.5,32.9,356,19.6,348.2z"/>
	<path class="st0" d="M154.7,433.6h35.9l16.7-62c-16.4,3.2-34,5.1-52.6,5.5L154.7,433.6L154.7,433.6z"/>
	<path class="st0" d="M208.1,433.6h7.6c16.3,0,30.8-10.3,36.3-25.7l21-59.7c-13.3,7.8-29.1,14.2-47,19L208.1,433.6z"/>
	<path class="st0" d="M208.2,190.6c-7.9,26.9-32.5,46.7-62,46.7s-54.1-19.8-62-46.7C34.5,213.1,0,257.8,0,284.7
		c0,37.1,65.5,67.2,146.3,67.2c80.8,0,146.3-30.1,146.3-67.2C292.5,257.8,258,213.2,208.2,190.6z"/>
	<path class="st0" d="M146.3,212c21.8,0,39.6-17.7,39.6-39.6c0-21.8-17.7-39.6-39.6-39.6c-21.8,0-39.6,17.7-39.6,39.6
		C106.7,194.3,124.4,212,146.3,212z"/>
</g>
</svg>
