<?xml version="1.0" encoding="utf-8"?>
<!-- Generator: Adobe Illustrator 22.0.1, SVG Export Plug-In . SVG Version: 6.00 Build 0)  -->
<svg version="1.1" id="Layer_1" xmlns="http://www.w3.org/2000/svg" xmlns:xlink="http://www.w3.org/1999/xlink" x="0px" y="0px"
	 viewBox="0 0 1000 1000" style="enable-background:new 0 0 1000 1000;" xml:space="preserve">
<style type="text/css">
	.st0{fill:#684F40;}
</style>
<path class="st0" d="M387.3,318.4c-24.9,8.4-57.6,49.2-79.4,77.6c-23.7,30.8-47.4,82.2-79.4,80.3c-26.3-1.5-46.6-33.3-43.6-61.6
	c3-28.2,30.3-37.1,33.3-56.2C154.3,372.6,90.8,412.5,49,463c-28.2,34.1-73,119-33.3,174c44.8,62.1,228.2,48.2,351.1,48.2
	c144.2,0,300.2,0.8,407.4,2.7c38.9,0.7,94.8,3.7,130.7,0c65.6-6.8,115-75.6,87.1-147.2c-12.2-31.4-42.9-47.8-69.2-74.9
	c-39.2,3.1-76.2,69.7-112.8,69.6c-29.8-0.1-52.4-26-48.7-58.9c4.7-42.3,56.2-48.4,76.9-80.3c-49.9-36.1-103.8,7.6-143.5,48.2
	c-28.2,28.8-116.8,126.8-130.7,40.1C550.5,400,641.5,371,671.7,329.2c-12.2-3.4-26.6-4.3-38.4-8c-40.1,24.2-75.8,33.1-112.8,66.9
	c-25.4,23.2-68.2,108.7-107.6,109.7c-26.4,0.7-51.4-25.1-51.3-53.5c0.2-42.4,96-108.6,97.4-133.8C437.8,318,408.7,311.3,387.3,318.4
	z"/>
</svg>
