<?xml version="1.0" encoding="utf-8"?>
<!-- Generator: Adobe Illustrator 22.0.1, SVG Export Plug-In . SVG Version: 6.00 Build 0)  -->
<svg version="1.1" id="Layer_1" xmlns="http://www.w3.org/2000/svg" xmlns:xlink="http://www.w3.org/1999/xlink" x="0px" y="0px"
	 viewBox="0 0 1000 1000" style="enable-background:new 0 0 1000 1000;" xml:space="preserve">
<style type="text/css">
	.st0{fill:#684F40;}
	.st1{fill:#FFFFFF;}
</style>
<path class="st0" d="M876.7,598.2c-203.7,79.2-554.5,82.4-763.6,6.9c-0.1,21.8-6.7,37.1-6.9,58.9c-46,21.9-103.9,41.2-106.1,93.5
	c-3.2,72.8,121,115.9,198.6,135.1c177.4,44.1,428.3,42.1,602.6,0c77-18.6,201.6-59.4,198.6-135.1c-2.3-59.5-69.8-70.7-109.6-100.5
	C886.6,636.7,883.6,615.5,876.7,598.2z"/>
<g>
	<g>
		<path class="st0" d="M595.9,300.9C562,263.5,571,346,595.9,300.9L595.9,300.9z M318.5,307.8c-19.9,42.8,47.3,34.7,34.2,3.5
			c129.5-6.2,276.5-27.2,349.3-90.1c20.4-17.6,41.6-45.6,37.7-76.2c-13.9-17.1-34.8-25-58.2-27.7c-144-16.7-360.5,43-407.5,107.4
			c-9.8,13.4-16.4,34.8-13.7,55.4C274.9,294.2,291.9,305.9,318.5,307.8z M462.3,349.4C527.2,391.6,481.2,269.8,462.3,349.4
			L462.3,349.4z M804.8,103.4c0.7-3.9,3.8-5.4,6.8-6.9c3.4-21.3-13.7-23.8-24-13.9C787,96,793.1,102.5,804.8,103.4z M746.5,228.1
			c9.4,2.5,6.9-6.9,13.7-6.9C763.4,180.6,716.8,213.9,746.5,228.1z M910.9,68.8c3.2,10.6,16.6,10.9,17.1,24.2
			c-56.7,62.4-122.1,146.1-212.3,201c-84.4,51.3-195.4,103-304.8,110.9c-122.5,8.9-231.9-34.7-291.1-93.6
			c-16.8-16.7-20.4-42-41.1-52c6.9,48.1,51.2,86.5,92.4,114.4c70,47.3,164.4,69.5,270.5,58.9C667.8,410,852.6,280.7,952,141.5
			c5.7,0.1,1.9,9.6,6.9,10.4C960,111.2,922.2,73.8,910.9,68.8z M818.4,318.2c-31.5,34.5-4.2,119.3-51.4,124.7
			c-43.2,5-43.1-53.6-85.6-58.9c-17.9,49.2-17.2,137.5-85.6,107.4c-26.9-11.8-19.2-56.4-54.8-65.8c-31.1,22.9-22.9,75.5-58.2,86.6
			c-47.4,14.9-64.2-48.1-102.7-69.3c-15.4,30.8-17.1,71.5-51.4,72.8c-47.1,1.8-40.8-63.1-75.3-86.6c-23.4,16.1-14.7,51.8-44.5,55.4
			c-44,5.4-50.7-50.4-51.4-104c-18.8,11-16.6,43.3-41.1,48.5v83.2c213.8,70.1,553.3,47.3,749.9-20.8c-3.6-52.3-2.9-106.8,13.7-159.4
			C861.8,326.9,843.8,305.1,818.4,318.2z M229.5,314.8c14.9-22.1-25.7-36.3-20.5-3.5C213,315.3,221,315.2,229.5,314.8z M250,193.5
			c-12.8-14.9-42-6-34.2,20.8C227.9,228.5,259.1,221.7,250,193.5z"/>
	</g>
</g>
<path class="st0" d="M119.9,713.3c-4.5,18.3-30.2,9.9-41.1,13.9c-8.8,69.7,72.7,101.7,137,121.3c154.2,46.9,389.7,48.6,558.1,3.5
	c71.9-19.2,166.3-46.8,157.5-128.2c-12.8-14-51.5-5-34.2-45c42.2,13.9,72,40.3,68.5,100.5C847.3,942,284.6,949.4,89.1,834.6
	c-24.3-14.3-57-46.3-58.2-72.8C28.9,718.2,106,641.4,119.9,713.3z"/>
<path class="st1" d="M893.8,730.6c-14.5,20.1-48.3,3.5-34.2-24.2C877.9,696.5,898.2,700.5,893.8,730.6z"/>
<path class="st0" d="M123.3,758.3c-21.7-17.9-5.6-46.1,13.7-45.1C162.4,714.6,169.5,765.9,123.3,758.3z"/>
<path class="st1" d="M856.1,737.5c-0.2,16-9.7,22.5-27.4,20.8C801,740.4,844.1,704.6,856.1,737.5z"/>
<path class="st0" d="M154.1,751.4c4.6-3.4,6.8-9.3,10.3-13.9c6.8,0,13.7,0,20.5,0C212,768.4,156.7,791.4,154.1,751.4z"/>
<path class="st1" d="M811.6,744.4c16.2,29.5-32.1,38-30.8,7C785.9,741.5,799.8,738.3,811.6,744.4z"/>
<path class="st0" d="M229.5,744.4c17.9,15.2,9.2,42-6.8,45.1C192.1,795.2,178.4,736.9,229.5,744.4z"/>
<path class="st1" d="M780.8,765.2c0.2,10.6-7.2,13.5-10.3,20.8c-16.3,2.7-22.6-4.9-27.4-13.9C741.7,747.9,775.3,745.5,780.8,765.2z"
	/>
<path class="st0" d="M277.4,789.5c-14.9,4.9-21.7,8.4-34.2,0C231.2,743.7,295.4,755.2,277.4,789.5z"/>
<path class="st1" d="M729.4,761.8c3.9,7.6,8.9,14.2,6.9,27.7c-5.5,7.1-17.2,8-30.8,6.9C694.5,781.2,700.7,755.7,729.4,761.8z"/>
<path class="st0" d="M321.9,792.9c-6,9.4-28.2,9.4-34.2,0C279.8,757.5,329.8,757.5,321.9,792.9z"/>
<path class="st0" d="M695.2,796.4c-5.5,6-14.3,8.6-27.4,6.9C642.3,776.5,701.9,748.6,695.2,796.4z"/>
<path class="st0" d="M363,779.1c0,8.1,0,16.2,0,24.3c-9.6,4.8-19.7,9.2-30.8,3.5C316.4,781.9,345.1,761.1,363,779.1z"/>
<path class="st0" d="M650.7,775.6c3.9,7.6,8.8,14.2,6.8,27.7C631.5,838.1,595,767,650.7,775.6z"/>
<path class="st0" d="M404.1,782.6c11.9,22.4-13.9,39.4-30.8,24.3C365.7,781.8,387.4,771.8,404.1,782.6z"/>
<path class="st0" d="M606.1,779.1c7,5.6,7.9,17.4,6.8,31.2C584.1,840.5,558.6,770.4,606.1,779.1z"/>
<path class="st0" d="M448.6,789.5c4.1,25.9-11.9,34.6-30.8,27.7C400.6,793.6,432,768.8,448.6,789.5z"/>
<path class="st0" d="M489.7,806.8c-4.5,11.3-26.8,14.4-34.2,3.5C446.3,775.6,495.3,774.5,489.7,806.8z"/>
<path class="st0" d="M534.2,789.5c3.1,20.4-5.2,29.4-20.6,31.2C482.9,811.2,510.2,762.1,534.2,789.5z"/>
<path class="st0" d="M571.9,789.5c3.6,22.1-5.5,31.4-27.4,27.7C526.8,797.9,552.1,769.9,571.9,789.5z"/>
</svg>
