<?xml version="1.0" encoding="utf-8"?>
<!-- Generator: Adobe Illustrator 22.0.1, SVG Export Plug-In . SVG Version: 6.00 Build 0)  -->
<svg version="1.1" id="Capa_1" xmlns="http://www.w3.org/2000/svg" xmlns:xlink="http://www.w3.org/1999/xlink" x="0px" y="0px"
	 viewBox="0 0 468.5 468.5" style="enable-background:new 0 0 468.5 468.5;" xml:space="preserve">
<style type="text/css">
	.st0{fill:#684F40;}
</style>
<g>
	<path class="st0" d="M389.7,155.8c-71-79.6-157.8-118.2-194-86.4c-36.1,31.9-7.9,122.2,63,201.8c71,79.6,157.8,118.3,194,86.4
		C488.9,325.8,460.7,235.4,389.7,155.8z M396.1,199.8c2.2-2,7-0.2,10.8,4c3.8,4.2,5,9.2,2.8,11.1c-2.2,2-7,0.2-10.8-4
		C395.2,206.7,393.9,201.8,396.1,199.8z M323.5,139.4c1.2,0.5,2.3,5.3,2.5,10.5c0.2,5.3-0.6,9.1-1.8,8.6c-1.2-0.6-2.3-5.3-2.5-10.5
		C321.6,142.7,322.4,138.9,323.5,139.4z M247.4,223.3c-2.2,2-7,0.2-10.8-4c-3.8-4.2-5-9.2-2.9-11.1c2.2-2,7-0.2,10.8,4
		C248.3,216.4,249.6,221.3,247.4,223.3z M270.6,197.9c-5.6-2.3-10.1-5.1-10.2-6.2c-0.1-1.1,4.3-0.2,9.9,2.1
		c5.6,2.3,10.1,5.1,10.3,6.2C280.6,201.2,276.2,200.2,270.6,197.9z M280.9,163.6c-5,4.5-17.2-1-27.3-12.2
		c-10.1-11.2-14.2-24-9.2-28.5c5-4.5,17.2,1,27.3,12.2C281.7,146.4,285.9,159.1,280.9,163.6z M296.2,112.9c-2.2,2-7,0.2-10.8-4
		c-3.8-4.2-5-9.2-2.8-11.1c2.2-2,7-0.2,10.8,4C297.1,105.9,298.4,110.9,296.2,112.9z M327.5,256.8c-3.7,3.3-11.8,0.3-18.2-6.8
		c-6.3-7.1-8.5-15.5-4.8-18.8c3.7-3.3,11.8-0.3,18.2,6.8C329.1,245,331.2,253.4,327.5,256.8z M358.5,310.2c-2.2,2-7,0.2-10.8-4
		c-3.8-4.2-5-9.2-2.8-11.1c2.2-2,7-0.2,10.8,4C359.4,303.2,360.7,308.2,358.5,310.2z M353.8,210.1c-6.3-7.1-8.1-15.9-3.8-19.7
		c4.2-3.8,12.8-1.2,19.2,5.9c6.3,7.1,8,15.9,3.8,19.7C368.7,219.8,360.2,217.1,353.8,210.1z M381.2,290c-5.2-4.4-9.1-8.7-8.7-9.5
		c0.4-0.8,5,2.1,10.2,6.5c5.2,4.4,9.1,8.7,8.7,9.5S386.4,294.5,381.2,290z M421.2,293.5c-2.3,2.1-10.7-3.6-18.9-12.7
		c-8.1-9.1-12.9-18.1-10.6-20.1c2.3-2,10.7,3.6,18.8,12.7C418.8,282.4,423.5,291.4,421.2,293.5z M243.8,288.3
		c-8.1-9.1-15.6-18.3-22.7-27.6c-2.7,1-5.7,1.5-8.8,1.3c-9.5-0.7-16.7-7.4-16.1-15c0.3-4.5,3.4-8.3,7.8-10.5
		c-13.3-20.2-24.1-40.6-32.1-60.4C79.2,177.6,5,219.9,0.2,277.8c-5.2,64.1,76.7,123,182.9,131.4c65.5,5.2,124.9-10,162.1-37.4
		C311,352.7,275.8,324.2,243.8,288.3z M94.3,216.5c5.6,0.4,9.9,3.9,9.6,7.9c-0.3,3.9-5.1,6.7-10.7,6.3c-5.6-0.4-9.9-3.9-9.6-7.9
		C83.9,218.9,88.7,216.1,94.3,216.5z M98.4,300.9c-15.1-1.1-26.7-9.3-26-18.2c0.7-8.9,13.4-15.3,28.5-14.1
		c15.1,1.1,26.7,9.3,26,18.2C126.2,295.6,113.5,302,98.4,300.9z M131.7,380.9c-5.6-0.4-9.9-3.9-9.6-7.8c0.3-3.9,5.1-6.8,10.7-6.3
		c5.6,0.4,9.9,3.9,9.6,7.8C142.1,378.5,137.3,381.3,131.7,380.9z M142.5,328.7c-5.7,3-11,4.7-11.8,3.8c-0.8-1,3.1-4.3,8.7-7.3
		c5.7-3.1,10.9-4.8,11.8-3.8C152,322.4,148.1,325.7,142.5,328.7z M155.6,241.1c-1.2,0.6-5.2-2.8-9-7.6c-3.7-4.8-5.7-9.2-4.5-9.8
		c1.2-0.6,5.2,2.8,8.9,7.6C154.8,236.1,156.8,240.5,155.6,241.1z M206.3,341.5c-9.5-0.7-16.8-6.6-16.2-13.3
		c0.5-6.6,8.6-11.4,18-10.7c9.5,0.7,16.7,6.6,16.2,13.3C223.8,337.4,215.8,342.2,206.3,341.5z M283.3,352.2
		c-0.3,3.9-5.1,6.8-10.7,6.3c-5.6-0.4-9.9-3.9-9.6-7.9c0.3-3.9,5.1-6.7,10.7-6.3C279.3,344.8,283.6,348.3,283.3,352.2z"/>
</g>
</svg>
